<?xml version="1.0" encoding="UTF-8" standalone="no"?>
<!DOCTYPE svg PUBLIC "-//W3C//DTD SVG 1.1//EN"
 "http://www.w3.org/Graphics/SVG/1.1/DTD/svg11.dtd">
<!-- Generated by graphviz version 12.2.1 (20241206.2353)
 -->
<!-- Title: Clustered Web Services Pages: 1 -->
<svg width="1024pt" height="865pt"
 viewBox="0.00 0.00 1024.00 865.00" xmlns="http://www.w3.org/2000/svg" xmlns:xlink="http://www.w3.org/1999/xlink">
<g id="graph0" class="graph" transform="scale(1 1) rotate(0) translate(144 721)">
<title>Clustered Web Services</title>
<polygon fill="white" stroke="none" points="-144,144 -144,-721 880,-721 880,144 -144,144"/>
<text text-anchor="middle" x="368" y="-7.75" font-family="Sans-Serif" font-size="15.00" fill="#2d3436">Clustered Web Services</text>
<g id="clust1" class="cluster">
<title>cluster_Services</title>
<path fill="#e5f5fd" stroke="#aeb6be" d="M313.6,-34C313.6,-34 406.4,-34 406.4,-34 412.4,-34 418.4,-40 418.4,-46 418.4,-46 418.4,-557 418.4,-557 418.4,-563 412.4,-569 406.4,-569 406.4,-569 313.6,-569 313.6,-569 307.6,-569 301.6,-563 301.6,-557 301.6,-557 301.6,-46 301.6,-46 301.6,-40 307.6,-34 313.6,-34"/>
<text text-anchor="middle" x="334.72" y="-553.6" font-family="Sans-Serif" font-size="12.00" fill="#2d3436">Services</text>
</g>
<g id="clust2" class="cluster">
<title>cluster_DB Cluster</title>
<path fill="#e5f5fd" stroke="#aeb6be" d="M468.4,-304C468.4,-304 716,-304 716,-304 722,-304 728,-310 728,-316 728,-316 728,-467 728,-467 728,-473 722,-479 716,-479 716,-479 468.4,-479 468.4,-479 462.4,-479 456.4,-473 456.4,-467 456.4,-467 456.4,-316 456.4,-316 456.4,-310 462.4,-304 468.4,-304"/>
<text text-anchor="middle" x="495.9" y="-463.6" font-family="Sans-Serif" font-size="12.00" fill="#2d3436">DB Cluster</text>
</g>
<!-- dd12d3db22c04517b276193147d7bc02 -->
<g id="node1" class="node">
<title>dd12d3db22c04517b276193147d7bc02</title>
<image xlink:href="C:\Users\devg1\AppData\Local\Programs\Python\Python310\lib\site-packages\resources/aws/network\route-53.png" width="100.8px" height="100.8px" preserveAspectRatio="xMinYMin meet" x="-2.84217e-14" y="-340.4"/>
<text text-anchor="middle" x="50.4" y="-225.75" font-family="Sans-Serif" font-size="13.00" fill="#2d3436">dns</text>
</g>
<!-- 9eec059f48a4435ab46b49d9fa86d07d -->
<g id="node2" class="node">
<title>9eec059f48a4435ab46b49d9fa86d07d</title>
<image xlink:href="C:\Users\devg1\AppData\Local\Programs\Python\Python310\lib\site-packages\resources/aws/network\elastic-load-balancing.png" width="100.8px" height="100.8px" preserveAspectRatio="xMinYMin meet" x="154.8" y="-340.4"/>
<text text-anchor="middle" x="205.2" y="-225.75" font-family="Sans-Serif" font-size="13.00" fill="#2d3436">lb</text>
</g>
<!-- dd12d3db22c04517b276193147d7bc02&#45;&gt;9eec059f48a4435ab46b49d9fa86d07d -->
<g id="edge2" class="edge">
<title>dd12d3db22c04517b276193147d7bc02&#45;&gt;9eec059f48a4435ab46b49d9fa86d07d</title>
<path fill="none" stroke="#7b8894" d="M100.66,-290C100.66,-290 143.41,-290 143.41,-290"/>
<polygon fill="#7b8894" stroke="#7b8894" points="143.41,-293.5 153.41,-290 143.41,-286.5 143.41,-293.5"/>
</g>
<!-- fdf7a6f7a4c346fc83c4ccd9a2478151 -->
<g id="node3" class="node">
<title>fdf7a6f7a4c346fc83c4ccd9a2478151</title>
<image xlink:href="C:\Users\devg1\AppData\Local\Programs\Python\Python310\lib\site-packages\resources/aws/compute\elastic-container-service.png" width="100.8px" height="100.8px" preserveAspectRatio="xMinYMin meet" x="309.6" y="-520.4"/>
<text text-anchor="middle" x="360" y="-405.75" font-family="Sans-Serif" font-size="13.00" fill="#2d3436">web1</text>
</g>
<!-- 9eec059f48a4435ab46b49d9fa86d07d&#45;&gt;fdf7a6f7a4c346fc83c4ccd9a2478151 -->
<g id="edge3" class="edge">
<title>9eec059f48a4435ab46b49d9fa86d07d&#45;&gt;fdf7a6f7a4c346fc83c4ccd9a2478151</title>
<path fill="none" stroke="#7b8894" d="M205,-358.31C205,-409.23 205,-470 205,-470 205,-470 298.16,-470 298.16,-470"/>
<polygon fill="#7b8894" stroke="#7b8894" points="298.16,-473.5 308.16,-470 298.16,-466.5 298.16,-473.5"/>
</g>
<!-- 6d155cc2f3224b7e81688be8a46a69c3 -->
<g id="node4" class="node">
<title>6d155cc2f3224b7e81688be8a46a69c3</title>
<image xlink:href="C:\Users\devg1\AppData\Local\Programs\Python\Python310\lib\site-packages\resources/aws/compute\elastic-container-service.png" width="100.8px" height="100.8px" preserveAspectRatio="xMinYMin meet" x="309.6" y="-160.4"/>
<text text-anchor="middle" x="360" y="-45.75" font-family="Sans-Serif" font-size="13.00" fill="#2d3436">web2</text>
</g>
<!-- 9eec059f48a4435ab46b49d9fa86d07d&#45;&gt;6d155cc2f3224b7e81688be8a46a69c3 -->
<g id="edge4" class="edge">
<title>9eec059f48a4435ab46b49d9fa86d07d&#45;&gt;6d155cc2f3224b7e81688be8a46a69c3</title>
<path fill="none" stroke="#7b8894" d="M205,-221.69C205,-170.77 205,-110 205,-110 205,-110 298.16,-110 298.16,-110"/>
<polygon fill="#7b8894" stroke="#7b8894" points="298.16,-113.5 308.16,-110 298.16,-106.5 298.16,-113.5"/>
</g>
<!-- 810af654f98a4383a04e1e93b21370f5 -->
<g id="node5" class="node">
<title>810af654f98a4383a04e1e93b21370f5</title>
<image xlink:href="C:\Users\devg1\AppData\Local\Programs\Python\Python310\lib\site-packages\resources/aws/compute\elastic-container-service.png" width="100.8px" height="100.8px" preserveAspectRatio="xMinYMin meet" x="309.6" y="-340.4"/>
<text text-anchor="middle" x="360" y="-225.75" font-family="Sans-Serif" font-size="13.00" fill="#2d3436">web3</text>
</g>
<!-- 9eec059f48a4435ab46b49d9fa86d07d&#45;&gt;810af654f98a4383a04e1e93b21370f5 -->
<g id="edge5" class="edge">
<title>9eec059f48a4435ab46b49d9fa86d07d&#45;&gt;810af654f98a4383a04e1e93b21370f5</title>
<path fill="none" stroke="#7b8894" d="M255.46,-290C255.46,-290 298.21,-290 298.21,-290"/>
<polygon fill="#7b8894" stroke="#7b8894" points="298.21,-293.5 308.21,-290 298.21,-286.5 298.21,-293.5"/>
</g>
<!-- c964126123c34d7d84fd9a450d30af0f -->
<g id="node6" class="node">
<title>c964126123c34d7d84fd9a450d30af0f</title>
<image xlink:href="C:\Users\devg1\AppData\Local\Programs\Python\Python310\lib\site-packages\resources/aws/database\rds.png" width="100.8px" height="100.8px" preserveAspectRatio="xMinYMin meet" x="464.4" y="-430.4"/>
<text text-anchor="middle" x="514.8" y="-315.75" font-family="Sans-Serif" font-size="13.00" fill="#2d3436">userdb</text>
</g>
<!-- fdf7a6f7a4c346fc83c4ccd9a2478151&#45;&gt;c964126123c34d7d84fd9a450d30af0f -->
<g id="edge6" class="edge">
<title>fdf7a6f7a4c346fc83c4ccd9a2478151&#45;&gt;c964126123c34d7d84fd9a450d30af0f</title>
<path fill="none" stroke="#7b8894" d="M410.26,-432.8C410.26,-432.8 453.01,-432.8 453.01,-432.8"/>
<polygon fill="#7b8894" stroke="#7b8894" points="453.01,-436.3 463.01,-432.8 453.01,-429.3 453.01,-436.3"/>
</g>
<!-- e7cf0203aa0d4da0ad9660376e401599 -->
<g id="node8" class="node">
<title>e7cf0203aa0d4da0ad9660376e401599</title>
<image xlink:href="C:\Users\devg1\AppData\Local\Programs\Python\Python310\lib\site-packages\resources/aws/database\elasticache.png" width="100.8px" height="100.8px" preserveAspectRatio="xMinYMin meet" x="464.4" y="-250.4"/>
<text text-anchor="middle" x="514.8" y="-135.75" font-family="Sans-Serif" font-size="13.00" fill="#2d3436">memcached</text>
</g>
<!-- fdf7a6f7a4c346fc83c4ccd9a2478151&#45;&gt;e7cf0203aa0d4da0ad9660376e401599 -->
<g id="edge9" class="edge">
<title>fdf7a6f7a4c346fc83c4ccd9a2478151&#45;&gt;e7cf0203aa0d4da0ad9660376e401599</title>
<path fill="none" stroke="#7b8894" d="M410.03,-417.2C428.95,-417.2 446,-417.2 446,-417.2 446,-417.2 446,-252.8 446,-252.8 446,-252.8 452.92,-252.8 452.92,-252.8"/>
<polygon fill="#7b8894" stroke="#7b8894" points="452.92,-256.3 462.92,-252.8 452.92,-249.3 452.92,-256.3"/>
</g>
<!-- 6d155cc2f3224b7e81688be8a46a69c3&#45;&gt;c964126123c34d7d84fd9a450d30af0f -->
<g id="edge7" class="edge">
<title>6d155cc2f3224b7e81688be8a46a69c3&#45;&gt;c964126123c34d7d84fd9a450d30af0f</title>
<path fill="none" stroke="#7b8894" d="M410.13,-162.8C420.33,-162.8 428,-162.8 428,-162.8 428,-162.8 428,-327.2 428,-327.2 428,-327.2 453.05,-327.2 453.05,-327.2"/>
<polygon fill="#7b8894" stroke="#7b8894" points="453.05,-330.7 463.05,-327.2 453.05,-323.7 453.05,-330.7"/>
</g>
<!-- 6d155cc2f3224b7e81688be8a46a69c3&#45;&gt;e7cf0203aa0d4da0ad9660376e401599 -->
<g id="edge10" class="edge">
<title>6d155cc2f3224b7e81688be8a46a69c3&#45;&gt;e7cf0203aa0d4da0ad9660376e401599</title>
<path fill="none" stroke="#7b8894" d="M410.26,-147.2C410.26,-147.2 453.01,-147.2 453.01,-147.2"/>
<polygon fill="#7b8894" stroke="#7b8894" points="453.01,-150.7 463.01,-147.2 453.01,-143.7 453.01,-150.7"/>
</g>
<!-- 810af654f98a4383a04e1e93b21370f5&#45;&gt;c964126123c34d7d84fd9a450d30af0f -->
<g id="edge8" class="edge">
<title>810af654f98a4383a04e1e93b21370f5&#45;&gt;c964126123c34d7d84fd9a450d30af0f</title>
<path fill="none" stroke="#7b8894" d="M410.26,-342.8C410.26,-342.8 453.01,-342.8 453.01,-342.8"/>
<polygon fill="#7b8894" stroke="#7b8894" points="453.01,-346.3 463.01,-342.8 453.01,-339.3 453.01,-346.3"/>
</g>
<!-- 810af654f98a4383a04e1e93b21370f5&#45;&gt;e7cf0203aa0d4da0ad9660376e401599 -->
<g id="edge11" class="edge">
<title>810af654f98a4383a04e1e93b21370f5&#45;&gt;e7cf0203aa0d4da0ad9660376e401599</title>
<path fill="none" stroke="#7b8894" d="M410.26,-237.2C410.26,-237.2 453.01,-237.2 453.01,-237.2"/>
<polygon fill="#7b8894" stroke="#7b8894" points="453.01,-240.7 463.01,-237.2 453.01,-233.7 453.01,-240.7"/>
</g>
<!-- d21e13cd3b2443988696b71818a13764 -->
<g id="node7" class="node">
<title>d21e13cd3b2443988696b71818a13764</title>
<image xlink:href="C:\Users\devg1\AppData\Local\Programs\Python\Python310\lib\site-packages\resources/aws/database\rds.png" width="100.8px" height="100.8px" preserveAspectRatio="xMinYMin meet" x="619.2" y="-430.4"/>
<text text-anchor="middle" x="669.6" y="-315.75" font-family="Sans-Serif" font-size="13.00" fill="#2d3436">userdb ro</text>
</g>
<!-- c964126123c34d7d84fd9a450d30af0f&#45;&gt;d21e13cd3b2443988696b71818a13764 -->
<g id="edge1" class="edge">
<title>c964126123c34d7d84fd9a450d30af0f&#45;&gt;d21e13cd3b2443988696b71818a13764</title>
<path fill="none" stroke="#7b8894" d="M565.06,-380C582.45,-380 601.94,-380 619.33,-380"/>
</g>
</g>
</svg>
