<?xml version="1.0" encoding="UTF-8" standalone="no"?>
<!DOCTYPE svg PUBLIC "-//W3C//DTD SVG 1.1//EN"
 "http://www.w3.org/Graphics/SVG/1.1/DTD/svg11.dtd">
<!-- Generated by graphviz version 12.2.1 (20241206.2353)
 -->
<!-- Title: Grouped Workers Pages: 1 -->
<svg width="965pt" height="832pt"
 viewBox="0.00 0.00 964.80 832.40" xmlns="http://www.w3.org/2000/svg" xmlns:xlink="http://www.w3.org/1999/xlink">
<g id="graph0" class="graph" transform="scale(1 1) rotate(0) translate(144 688.4)">
<title>Grouped Workers</title>
<polygon fill="white" stroke="none" points="-144,144 -144,-688.4 820.8,-688.4 820.8,144 -144,144"/>
<text text-anchor="middle" x="338.4" y="-7.75" font-family="Sans-Serif" font-size="15.00" fill="#2d3436">Grouped Workers</text>
<!-- d40aa3dfcfbd4ecea4734bec1087249b -->
<g id="node1" class="node">
<title>d40aa3dfcfbd4ecea4734bec1087249b</title>
<image xlink:href="C:\Users\devg1\AppData\Local\Programs\Python\Python310\lib\site-packages\resources/aws/network\elastic-load-balancing.png" width="100.8px" height="100.8px" preserveAspectRatio="xMinYMin meet" x="288" y="-526.4"/>
<text text-anchor="middle" x="338.4" y="-411.75" font-family="Sans-Serif" font-size="13.00" fill="#2d3436">lb</text>
</g>
<!-- 04068ccf00244cf783e0427022b5954b -->
<g id="node2" class="node">
<title>04068ccf00244cf783e0427022b5954b</title>
<image xlink:href="C:\Users\devg1\AppData\Local\Programs\Python\Python310\lib\site-packages\resources/aws/compute\ec2.png" width="100.8px" height="100.8px" preserveAspectRatio="xMinYMin meet" x="-2.84217e-14" y="-335.6"/>
<text text-anchor="middle" x="50.4" y="-220.95" font-family="Sans-Serif" font-size="13.00" fill="#2d3436">worker1</text>
</g>
<!-- d40aa3dfcfbd4ecea4734bec1087249b&#45;&gt;04068ccf00244cf783e0427022b5954b -->
<g id="edge1" class="edge">
<title>d40aa3dfcfbd4ecea4734bec1087249b&#45;&gt;04068ccf00244cf783e0427022b5954b</title>
<path fill="none" stroke="#7b8894" d="M288.23,-499C205.72,-499 50.4,-499 50.4,-499 50.4,-499 50.4,-364.95 50.4,-364.95"/>
<polygon fill="#7b8894" stroke="#7b8894" points="53.9,-364.95 50.4,-354.95 46.9,-364.95 53.9,-364.95"/>
</g>
<!-- 169f77e8720b4e55bc25b4d10191d422 -->
<g id="node3" class="node">
<title>169f77e8720b4e55bc25b4d10191d422</title>
<image xlink:href="C:\Users\devg1\AppData\Local\Programs\Python\Python310\lib\site-packages\resources/aws/compute\ec2.png" width="100.8px" height="100.8px" preserveAspectRatio="xMinYMin meet" x="144" y="-335.6"/>
<text text-anchor="middle" x="194.4" y="-220.95" font-family="Sans-Serif" font-size="13.00" fill="#2d3436">worker2</text>
</g>
<!-- d40aa3dfcfbd4ecea4734bec1087249b&#45;&gt;169f77e8720b4e55bc25b4d10191d422 -->
<g id="edge2" class="edge">
<title>d40aa3dfcfbd4ecea4734bec1087249b&#45;&gt;169f77e8720b4e55bc25b4d10191d422</title>
<path fill="none" stroke="#7b8894" d="M288.04,-453C246.51,-453 194.4,-453 194.4,-453 194.4,-453 194.4,-364.96 194.4,-364.96"/>
<polygon fill="#7b8894" stroke="#7b8894" points="197.9,-364.96 194.4,-354.96 190.9,-364.96 197.9,-364.96"/>
</g>
<!-- 8991b82c7746423d8cab307def198c57 -->
<g id="node4" class="node">
<title>8991b82c7746423d8cab307def198c57</title>
<image xlink:href="C:\Users\devg1\AppData\Local\Programs\Python\Python310\lib\site-packages\resources/aws/compute\ec2.png" width="100.8px" height="100.8px" preserveAspectRatio="xMinYMin meet" x="288" y="-335.6"/>
<text text-anchor="middle" x="338.4" y="-220.95" font-family="Sans-Serif" font-size="13.00" fill="#2d3436">worker3</text>
</g>
<!-- d40aa3dfcfbd4ecea4734bec1087249b&#45;&gt;8991b82c7746423d8cab307def198c57 -->
<g id="edge3" class="edge">
<title>d40aa3dfcfbd4ecea4734bec1087249b&#45;&gt;8991b82c7746423d8cab307def198c57</title>
<path fill="none" stroke="#7b8894" d="M338.4,-407.66C338.4,-407.66 338.4,-364.9 338.4,-364.9"/>
<polygon fill="#7b8894" stroke="#7b8894" points="341.9,-364.9 338.4,-354.9 334.9,-364.9 341.9,-364.9"/>
</g>
<!-- fe5989e904974a418c839c13b5fcc9c4 -->
<g id="node5" class="node">
<title>fe5989e904974a418c839c13b5fcc9c4</title>
<image xlink:href="C:\Users\devg1\AppData\Local\Programs\Python\Python310\lib\site-packages\resources/aws/compute\ec2.png" width="100.8px" height="100.8px" preserveAspectRatio="xMinYMin meet" x="432" y="-335.6"/>
<text text-anchor="middle" x="482.4" y="-220.95" font-family="Sans-Serif" font-size="13.00" fill="#2d3436">worker4</text>
</g>
<!-- d40aa3dfcfbd4ecea4734bec1087249b&#45;&gt;fe5989e904974a418c839c13b5fcc9c4 -->
<g id="edge4" class="edge">
<title>d40aa3dfcfbd4ecea4734bec1087249b&#45;&gt;fe5989e904974a418c839c13b5fcc9c4</title>
<path fill="none" stroke="#7b8894" d="M388.76,-453C430.29,-453 482.4,-453 482.4,-453 482.4,-453 482.4,-364.96 482.4,-364.96"/>
<polygon fill="#7b8894" stroke="#7b8894" points="485.9,-364.96 482.4,-354.96 478.9,-364.96 485.9,-364.96"/>
</g>
<!-- ecec631db5674e01ba2332a33f92c76d -->
<g id="node6" class="node">
<title>ecec631db5674e01ba2332a33f92c76d</title>
<image xlink:href="C:\Users\devg1\AppData\Local\Programs\Python\Python310\lib\site-packages\resources/aws/compute\ec2.png" width="100.8px" height="100.8px" preserveAspectRatio="xMinYMin meet" x="576" y="-335.6"/>
<text text-anchor="middle" x="626.4" y="-220.95" font-family="Sans-Serif" font-size="13.00" fill="#2d3436">worker5</text>
</g>
<!-- d40aa3dfcfbd4ecea4734bec1087249b&#45;&gt;ecec631db5674e01ba2332a33f92c76d -->
<g id="edge5" class="edge">
<title>d40aa3dfcfbd4ecea4734bec1087249b&#45;&gt;ecec631db5674e01ba2332a33f92c76d</title>
<path fill="none" stroke="#7b8894" d="M388.57,-499C471.08,-499 626.4,-499 626.4,-499 626.4,-499 626.4,-364.95 626.4,-364.95"/>
<polygon fill="#7b8894" stroke="#7b8894" points="629.9,-364.95 626.4,-354.95 622.9,-364.95 629.9,-364.95"/>
</g>
<!-- f41795c4b6184ddd9c8ffb8804c89b44 -->
<g id="node7" class="node">
<title>f41795c4b6184ddd9c8ffb8804c89b44</title>
<image xlink:href="C:\Users\devg1\AppData\Local\Programs\Python\Python310\lib\site-packages\resources/aws/database\rds.png" width="100.8px" height="100.8px" preserveAspectRatio="xMinYMin meet" x="288" y="-144.8"/>
<text text-anchor="middle" x="338.4" y="-30.15" font-family="Sans-Serif" font-size="13.00" fill="#2d3436">events</text>
</g>
<!-- 04068ccf00244cf783e0427022b5954b&#45;&gt;f41795c4b6184ddd9c8ffb8804c89b44 -->
<g id="edge6" class="edge">
<title>04068ccf00244cf783e0427022b5954b&#45;&gt;f41795c4b6184ddd9c8ffb8804c89b44</title>
<path fill="none" stroke="#7b8894" d="M50.4,-216.86C50.4,-154.5 50.4,-72 50.4,-72 50.4,-72 276.72,-72 276.72,-72"/>
<polygon fill="#7b8894" stroke="#7b8894" points="276.72,-75.5 286.72,-72 276.72,-68.5 276.72,-75.5"/>
</g>
<!-- 169f77e8720b4e55bc25b4d10191d422&#45;&gt;f41795c4b6184ddd9c8ffb8804c89b44 -->
<g id="edge7" class="edge">
<title>169f77e8720b4e55bc25b4d10191d422&#45;&gt;f41795c4b6184ddd9c8ffb8804c89b44</title>
<path fill="none" stroke="#7b8894" d="M194.4,-217.27C194.4,-170.59 194.4,-117 194.4,-117 194.4,-117 276.52,-117 276.52,-117"/>
<polygon fill="#7b8894" stroke="#7b8894" points="276.52,-120.5 286.52,-117 276.52,-113.5 276.52,-120.5"/>
</g>
<!-- 8991b82c7746423d8cab307def198c57&#45;&gt;f41795c4b6184ddd9c8ffb8804c89b44 -->
<g id="edge8" class="edge">
<title>8991b82c7746423d8cab307def198c57&#45;&gt;f41795c4b6184ddd9c8ffb8804c89b44</title>
<path fill="none" stroke="#7b8894" d="M338.4,-216.86C338.4,-216.86 338.4,-174.1 338.4,-174.1"/>
<polygon fill="#7b8894" stroke="#7b8894" points="341.9,-174.1 338.4,-164.1 334.9,-174.1 341.9,-174.1"/>
</g>
<!-- fe5989e904974a418c839c13b5fcc9c4&#45;&gt;f41795c4b6184ddd9c8ffb8804c89b44 -->
<g id="edge9" class="edge">
<title>fe5989e904974a418c839c13b5fcc9c4&#45;&gt;f41795c4b6184ddd9c8ffb8804c89b44</title>
<path fill="none" stroke="#7b8894" d="M482.4,-217.27C482.4,-170.59 482.4,-117 482.4,-117 482.4,-117 400.28,-117 400.28,-117"/>
<polygon fill="#7b8894" stroke="#7b8894" points="400.28,-113.5 390.28,-117 400.28,-120.5 400.28,-113.5"/>
</g>
<!-- ecec631db5674e01ba2332a33f92c76d&#45;&gt;f41795c4b6184ddd9c8ffb8804c89b44 -->
<g id="edge10" class="edge">
<title>ecec631db5674e01ba2332a33f92c76d&#45;&gt;f41795c4b6184ddd9c8ffb8804c89b44</title>
<path fill="none" stroke="#7b8894" d="M626.4,-216.86C626.4,-154.5 626.4,-72 626.4,-72 626.4,-72 400.08,-72 400.08,-72"/>
<polygon fill="#7b8894" stroke="#7b8894" points="400.08,-68.5 390.08,-72 400.08,-75.5 400.08,-68.5"/>
</g>
</g>
</svg>
